<?xml version="1.0" encoding="UTF-8"?>
<!DOCTYPE svg PUBLIC "-//W3C//DTD SVG 1.1//EN" "http://www.w3.org/Graphics/SVG/1.1/DTD/svg11.dtd">
<!-- Creator: CorelDRAW -->
<svg xmlns="http://www.w3.org/2000/svg" xml:space="preserve" width="1777px" height="240px" version="1.1" shape-rendering="geometricPrecision" text-rendering="geometricPrecision" image-rendering="optimizeQuality" fill-rule="evenodd" clip-rule="evenodd"
viewBox="0 0 141.54 19.14"
 xmlns:xlink="http://www.w3.org/1999/xlink"
 xmlns:xodm="http://www.corel.com/coreldraw/odm/2003">
 <defs>
    <linearGradient id="id0" gradientUnits="userSpaceOnUse" x1="5.01" y1="13.98" x2="18.78" y2="0.28">
     <stop offset="0" stop-opacity="1" stop-color="#1751A4"/>
     <stop offset="0.2" stop-opacity="1" stop-color="#1E6299"/>
     <stop offset="0.658824" stop-opacity="1" stop-color="#348A75"/>
     <stop offset="1" stop-opacity="1" stop-color="#49AB48"/>
    </linearGradient>
 </defs>
 <g id="Layer_x0020_1">
  <metadata id="CorelCorpID_0Corel-Layer"/>
  <g id="_2325258539888">
   <path fill="#D71729" d="M79.79 0.88c-0.25,1.04 -0.12,2.41 -0.12,3.5 1.46,0 2.78,0.49 3.81,1.43 0.9,0.82 1.51,2.42 1.55,3.71 0.07,2.75 -2.17,5.24 -5.36,5.24 0,3.21 -0.3,3.61 0.93,3.61 1.15,0 2.31,-0.45 3.11,-0.85 2.57,-1.28 4.94,-4.12 4.94,-6.96 0,-1.79 0.04,-3.18 -0.7,-4.78 -0.33,-0.69 -1.24,-1.88 -1.78,-2.42 -1.3,-1.28 -4.71,-3.31 -6.38,-2.48z"/>
   <path fill="#D71729" d="M100.77 8.81c0,2.83 0.29,4.24 2.06,6.45 1.64,2.04 4.19,3.11 6.92,3.11 0,-4.71 0.44,-3.22 -1.92,-4.03 -1.38,-0.48 -2.28,-1.26 -2.9,-2.57 -1.51,-3.14 0.29,-6.59 3.89,-7.26 1.21,-0.23 0.93,0.24 0.93,-3.74 -2.02,0 -3.64,0.41 -5.22,1.54 -0.23,0.17 -0.38,0.29 -0.59,0.47 -0.24,0.2 -0.35,0.25 -0.58,0.46 -1.27,1.2 -2.59,3.71 -2.59,5.57z"/>
   <path fill="#D71729" d="M90.28 4.38c2.15,0.05 5.13,1.83 5.13,4.43l0 1.05c0,3 -2.35,4.67 -5.13,4.9l0 3.61c2.63,0 4.69,-0.92 6.44,-2.65 4.38,-4.34 2.65,-11.53 -2.24,-14.02 -1.46,-0.74 -2.52,-0.93 -4.2,-0.93l0 3.61z"/>
   <polygon fill="#D71729" points="74.54,18.37 78.27,18.37 78.27,6.01 74.54,6.01 "/>
   <polygon fill="#004A8D" points="74.54,4.38 78.27,4.38 78.27,0.77 74.54,0.77 "/>
   <path fill="#77787A" fill-rule="nonzero" d="M112.42 3.78l0 -3.14 0.56 0 0 3.14 -0.56 0zm1.09 0l0 -3.14 0.55 0 1.14 2.11 0 -2.11 0.52 0 0 3.14 -0.56 0 -1.13 -2.06 0 2.06 -0.52 0zm2.8 -3.14l1.02 0c0.23,0 0.41,0.02 0.53,0.06 0.16,0.05 0.3,0.15 0.41,0.29 0.12,0.14 0.21,0.31 0.27,0.51 0.06,0.2 0.09,0.45 0.09,0.74 0,0.26 -0.03,0.48 -0.09,0.67 -0.07,0.23 -0.16,0.42 -0.29,0.56 -0.1,0.1 -0.23,0.19 -0.4,0.25 -0.12,0.04 -0.28,0.06 -0.49,0.06l-1.05 0 0 -3.14zm0.56 0.53l0 2.08 0.42 0c0.15,0 0.26,-0.01 0.33,-0.03 0.09,-0.02 0.17,-0.07 0.23,-0.13 0.06,-0.06 0.11,-0.16 0.14,-0.3 0.04,-0.14 0.06,-0.33 0.06,-0.58 0,-0.24 -0.02,-0.43 -0.06,-0.56 -0.03,-0.13 -0.09,-0.23 -0.15,-0.3 -0.07,-0.07 -0.16,-0.12 -0.26,-0.15 -0.08,-0.02 -0.23,-0.03 -0.46,-0.03l-0.25 0zm2.12 1.06c0,-0.32 0.04,-0.59 0.13,-0.81 0.06,-0.16 0.15,-0.3 0.25,-0.43 0.11,-0.13 0.23,-0.22 0.36,-0.28 0.18,-0.09 0.37,-0.13 0.6,-0.13 0.41,0 0.74,0.15 0.98,0.43 0.25,0.29 0.37,0.69 0.37,1.21 0,0.51 -0.12,0.9 -0.37,1.19 -0.24,0.29 -0.56,0.43 -0.97,0.43 -0.41,0 -0.74,-0.14 -0.99,-0.43 -0.24,-0.28 -0.36,-0.68 -0.36,-1.18zm0.58 -0.02c0,0.36 0.07,0.63 0.21,0.81 0.15,0.18 0.33,0.28 0.56,0.28 0.22,0 0.4,-0.09 0.55,-0.28 0.14,-0.18 0.21,-0.45 0.21,-0.82 0,-0.36 -0.07,-0.63 -0.21,-0.81 -0.14,-0.17 -0.32,-0.26 -0.55,-0.26 -0.23,0 -0.42,0.09 -0.56,0.27 -0.14,0.18 -0.21,0.45 -0.21,0.81zm2.55 1.57l0 -3.14 0.54 0 1.14 2.11 0 -2.11 0.52 0 0 3.14 -0.56 0 -1.13 -2.06 0 2.06 -0.51 0zm2.79 0l0 -3.14 2.05 0 0 0.53 -1.49 0 0 0.7 1.39 0 0 0.53 -1.39 0 0 0.85 1.55 0 0 0.53 -2.11 0zm2.44 -1.01l0.54 -0.07c0.03,0.21 0.1,0.36 0.2,0.46 0.1,0.1 0.24,0.15 0.41,0.15 0.17,0 0.31,-0.05 0.4,-0.13 0.09,-0.09 0.14,-0.19 0.14,-0.31 0,-0.07 -0.02,-0.13 -0.06,-0.19 -0.04,-0.05 -0.1,-0.09 -0.2,-0.13 -0.07,-0.03 -0.21,-0.07 -0.45,-0.14 -0.29,-0.09 -0.5,-0.19 -0.63,-0.31 -0.16,-0.18 -0.25,-0.39 -0.25,-0.64 0,-0.16 0.04,-0.31 0.12,-0.45 0.08,-0.14 0.19,-0.24 0.35,-0.32 0.15,-0.07 0.33,-0.11 0.54,-0.11 0.35,0 0.61,0.09 0.78,0.26 0.18,0.18 0.27,0.41 0.28,0.7l-0.56 0.03c-0.03,-0.17 -0.08,-0.28 -0.16,-0.35 -0.07,-0.07 -0.19,-0.11 -0.35,-0.11 -0.16,0 -0.29,0.04 -0.38,0.11 -0.06,0.05 -0.09,0.12 -0.09,0.2 0,0.07 0.03,0.14 0.09,0.19 0.07,0.07 0.24,0.14 0.51,0.21 0.27,0.07 0.47,0.15 0.6,0.23 0.13,0.08 0.24,0.18 0.31,0.32 0.07,0.13 0.11,0.3 0.11,0.5 0,0.18 -0.04,0.35 -0.13,0.51 -0.09,0.15 -0.22,0.27 -0.38,0.35 -0.16,0.07 -0.36,0.11 -0.6,0.11 -0.35,0 -0.62,-0.09 -0.81,-0.27 -0.19,-0.19 -0.3,-0.45 -0.33,-0.8zm2.71 1.01l0 -3.14 0.56 0 0 3.14 -0.56 0zm3.59 0l-0.61 0 -0.24 -0.71 -1.11 0 -0.23 0.71 -0.59 0 1.07 -3.14 0.6 0 1.11 3.14zm-1.03 -1.24l-0.38 -1.17 -0.38 1.17 0.76 0zm-20.18 3.01l1.02 0c0.23,0 0.41,0.02 0.53,0.06 0.16,0.05 0.3,0.15 0.41,0.29 0.12,0.13 0.21,0.3 0.27,0.51 0.06,0.2 0.09,0.44 0.09,0.74 0,0.26 -0.03,0.48 -0.09,0.67 -0.07,0.23 -0.17,0.41 -0.29,0.55 -0.1,0.11 -0.23,0.19 -0.4,0.25 -0.12,0.05 -0.28,0.07 -0.49,0.07l-1.05 0 0 -3.14zm0.56 0.53l0 2.08 0.42 0c0.15,0 0.26,-0.01 0.33,-0.03 0.09,-0.03 0.17,-0.07 0.23,-0.13 0.06,-0.06 0.11,-0.16 0.14,-0.3 0.04,-0.15 0.06,-0.34 0.06,-0.58 0,-0.24 -0.02,-0.43 -0.06,-0.56 -0.03,-0.13 -0.09,-0.23 -0.15,-0.3 -0.07,-0.08 -0.16,-0.13 -0.26,-0.15 -0.08,-0.02 -0.23,-0.03 -0.46,-0.03l-0.25 0zm2.23 2.61l0 -3.14 2.06 0 0 0.53 -1.49 0 0 0.7 1.38 0 0 0.53 -1.38 0 0 0.85 1.54 0 0 0.53 -2.11 0zm2.44 -1.02l0.54 -0.06c0.04,0.21 0.1,0.36 0.2,0.46 0.1,0.09 0.24,0.14 0.41,0.14 0.18,0 0.31,-0.04 0.4,-0.13 0.09,-0.08 0.14,-0.18 0.14,-0.3 0,-0.08 -0.02,-0.14 -0.06,-0.19 -0.03,-0.05 -0.1,-0.1 -0.2,-0.14 -0.06,-0.02 -0.21,-0.07 -0.44,-0.13 -0.3,-0.09 -0.51,-0.19 -0.63,-0.32 -0.17,-0.17 -0.26,-0.38 -0.26,-0.63 0,-0.16 0.04,-0.31 0.12,-0.45 0.08,-0.14 0.2,-0.25 0.35,-0.32 0.15,-0.07 0.33,-0.11 0.54,-0.11 0.35,0 0.61,0.09 0.78,0.26 0.18,0.18 0.27,0.41 0.28,0.7l-0.56 0.02c-0.02,-0.16 -0.08,-0.28 -0.15,-0.35 -0.08,-0.07 -0.2,-0.1 -0.36,-0.1 -0.16,0 -0.28,0.03 -0.37,0.11 -0.06,0.05 -0.09,0.11 -0.09,0.2 0,0.07 0.03,0.13 0.08,0.19 0.07,0.07 0.24,0.14 0.51,0.21 0.28,0.07 0.48,0.15 0.61,0.23 0.13,0.07 0.23,0.18 0.3,0.32 0.08,0.13 0.11,0.3 0.11,0.5 0,0.18 -0.04,0.34 -0.13,0.5 -0.09,0.16 -0.21,0.28 -0.37,0.35 -0.17,0.08 -0.37,0.12 -0.61,0.12 -0.35,0 -0.62,-0.09 -0.8,-0.28 -0.19,-0.18 -0.3,-0.45 -0.34,-0.8zm2.71 1.02l0 -3.14 0.56 0 0 3.14 -0.56 0zm2.38 -1.15l0 -0.54 1.21 0 0 1.26c-0.12,0.13 -0.29,0.24 -0.51,0.34 -0.22,0.1 -0.45,0.15 -0.68,0.15 -0.29,0 -0.54,-0.07 -0.76,-0.21 -0.21,-0.14 -0.37,-0.34 -0.48,-0.59 -0.11,-0.26 -0.16,-0.54 -0.16,-0.84 0,-0.33 0.06,-0.62 0.18,-0.88 0.12,-0.25 0.3,-0.45 0.53,-0.58 0.18,-0.11 0.4,-0.16 0.66,-0.16 0.35,0 0.62,0.08 0.81,0.24 0.19,0.17 0.32,0.4 0.37,0.69l-0.56 0.11c-0.03,-0.15 -0.11,-0.27 -0.22,-0.36 -0.1,-0.09 -0.24,-0.14 -0.4,-0.14 -0.24,0 -0.44,0.09 -0.58,0.27 -0.14,0.17 -0.22,0.44 -0.22,0.78 0,0.38 0.08,0.66 0.22,0.84 0.15,0.19 0.34,0.28 0.58,0.28 0.11,0 0.23,-0.02 0.35,-0.08 0.12,-0.05 0.22,-0.11 0.3,-0.19l0 -0.39 -0.64 0zm1.72 1.15l0 -3.14 0.55 0 1.14 2.1 0 -2.1 0.52 0 0 3.14 -0.56 0 -1.13 -2.07 0 2.07 -0.52 0zm-12.04 1.76l1.02 0c0.23,0 0.41,0.02 0.53,0.06 0.16,0.06 0.3,0.15 0.41,0.29 0.12,0.14 0.21,0.31 0.27,0.51 0.06,0.2 0.09,0.45 0.09,0.75 0,0.25 -0.03,0.48 -0.09,0.66 -0.07,0.23 -0.17,0.42 -0.29,0.56 -0.1,0.11 -0.23,0.19 -0.4,0.25 -0.12,0.05 -0.28,0.07 -0.49,0.07l-1.05 0 0 -3.15zm0.56 0.53l0 2.09 0.42 0c0.15,0 0.26,-0.01 0.33,-0.03 0.09,-0.03 0.17,-0.07 0.23,-0.14 0.06,-0.06 0.11,-0.16 0.14,-0.3 0.04,-0.14 0.06,-0.33 0.06,-0.57 0,-0.25 -0.02,-0.43 -0.06,-0.56 -0.03,-0.13 -0.09,-0.23 -0.15,-0.31 -0.07,-0.07 -0.16,-0.12 -0.26,-0.15 -0.08,-0.02 -0.23,-0.03 -0.46,-0.03l-0.25 0zm2.23 2.62l0 -3.15 2.06 0 0 0.53 -1.49 0 0 0.7 1.38 0 0 0.53 -1.38 0 0 0.86 1.54 0 0 0.53 -2.11 0zm3.3 0l-1 -3.15 0.61 0 0.7 2.33 0.68 -2.33 0.6 0 -0.99 3.15 -0.6 0zm1.87 0l0 -3.15 2.05 0 0 0.53 -1.49 0 0 0.7 1.38 0 0 0.53 -1.38 0 0 0.86 1.54 0 0 0.53 -2.1 0zm2.6 0l0 -3.12 0.56 0 0 2.59 1.39 0 0 0.53 -1.95 0zm2.23 -1.56c0,-0.32 0.04,-0.59 0.13,-0.8 0.06,-0.16 0.14,-0.31 0.25,-0.44 0.11,-0.12 0.23,-0.22 0.36,-0.28 0.17,-0.08 0.37,-0.12 0.6,-0.12 0.41,0 0.73,0.14 0.98,0.43 0.25,0.29 0.37,0.69 0.37,1.2 0,0.51 -0.12,0.91 -0.37,1.19 -0.24,0.29 -0.57,0.43 -0.97,0.43 -0.41,0 -0.74,-0.14 -0.99,-0.42 -0.24,-0.29 -0.36,-0.68 -0.36,-1.19zm0.57 -0.02c0,0.36 0.08,0.63 0.22,0.81 0.15,0.19 0.33,0.28 0.56,0.28 0.22,0 0.4,-0.09 0.55,-0.27 0.14,-0.19 0.21,-0.46 0.21,-0.83 0,-0.36 -0.07,-0.63 -0.21,-0.8 -0.14,-0.18 -0.32,-0.27 -0.55,-0.27 -0.24,0 -0.42,0.09 -0.56,0.27 -0.14,0.18 -0.22,0.45 -0.22,0.81zm2.56 1.58l0 -3.15 0.89 0c0.34,0 0.56,0.02 0.67,0.05 0.16,0.05 0.29,0.15 0.4,0.31 0.1,0.16 0.16,0.36 0.16,0.61 0,0.19 -0.03,0.36 -0.1,0.49 -0.06,0.13 -0.14,0.23 -0.23,0.31 -0.1,0.07 -0.19,0.12 -0.29,0.15 -0.13,0.03 -0.33,0.04 -0.58,0.04l-0.36 0 0 1.19 -0.56 0zm0.56 -2.62l0 0.9 0.3 0c0.22,0 0.37,-0.02 0.44,-0.05 0.08,-0.03 0.13,-0.08 0.18,-0.15 0.04,-0.08 0.06,-0.16 0.06,-0.25 0,-0.12 -0.03,-0.21 -0.09,-0.28 -0.06,-0.08 -0.13,-0.13 -0.22,-0.14 -0.07,-0.02 -0.2,-0.03 -0.4,-0.03l-0.27 0zm2.01 2.62l0 -3.15 0.84 0 0.5 2.15 0.49 -2.15 0.84 0 0 3.15 -0.52 0 0 -2.48 -0.55 2.48 -0.54 0 -0.54 -2.48 0 2.48 -0.52 0zm3.23 0l0 -3.15 2.05 0 0 0.53 -1.49 0 0 0.7 1.39 0 0 0.53 -1.39 0 0 0.86 1.55 0 0 0.53 -2.11 0zm2.58 0l0 -3.15 0.55 0 1.14 2.11 0 -2.11 0.52 0 0 3.15 -0.56 0 -1.13 -2.07 0 2.07 -0.52 0zm3.42 0l0 -2.62 -0.82 0 0 -0.53 2.2 0 0 0.53 -0.82 0 0 2.62 -0.56 0zm-25.95 3.74l0.54 0.19c-0.08,0.35 -0.22,0.61 -0.41,0.77 -0.2,0.17 -0.44,0.26 -0.74,0.26 -0.37,0 -0.67,-0.15 -0.91,-0.43 -0.23,-0.29 -0.35,-0.68 -0.35,-1.17 0,-0.53 0.12,-0.93 0.36,-1.22 0.23,-0.29 0.55,-0.44 0.94,-0.44 0.33,0 0.61,0.12 0.82,0.34 0.13,0.14 0.22,0.33 0.29,0.58l-0.56 0.15c-0.03,-0.16 -0.1,-0.29 -0.2,-0.38 -0.11,-0.1 -0.23,-0.14 -0.38,-0.14 -0.21,0 -0.38,0.08 -0.5,0.25 -0.13,0.16 -0.2,0.44 -0.2,0.81 0,0.4 0.07,0.68 0.19,0.85 0.13,0.17 0.29,0.25 0.5,0.25 0.15,0 0.27,-0.05 0.38,-0.16 0.11,-0.11 0.19,-0.28 0.23,-0.51zm1.02 1.16l0 -3.14 2.06 0 0 0.53 -1.49 0 0 0.7 1.38 0 0 0.53 -1.38 0 0 0.85 1.54 0 0 0.53 -2.11 0zm2.59 0l0 -3.14 0.54 0 1.14 2.11 0 -2.11 0.52 0 0 3.14 -0.56 0 -1.13 -2.06 0 2.06 -0.51 0zm3.41 0l0 -2.61 -0.82 0 0 -0.53 2.2 0 0 0.53 -0.81 0 0 2.61 -0.57 0zm1.75 0l0 -3.14 2.05 0 0 0.53 -1.49 0 0 0.7 1.38 0 0 0.53 -1.38 0 0 0.85 1.54 0 0 0.53 -2.1 0zm2.58 0l0 -3.14 1.18 0c0.29,0 0.51,0.03 0.64,0.08 0.14,0.06 0.24,0.16 0.32,0.31 0.09,0.14 0.13,0.3 0.13,0.49 0,0.24 -0.06,0.43 -0.19,0.59 -0.12,0.15 -0.3,0.25 -0.54,0.29 0.12,0.08 0.22,0.16 0.3,0.26 0.07,0.1 0.18,0.27 0.31,0.51l0.34 0.61 -0.67 0 -0.4 -0.68c-0.14,-0.25 -0.24,-0.4 -0.3,-0.46 -0.05,-0.07 -0.1,-0.11 -0.16,-0.13 -0.06,-0.03 -0.16,-0.04 -0.29,-0.04l-0.11 0 0 1.31 -0.56 0zm0.56 -1.81l0.41 0c0.27,0 0.44,-0.01 0.51,-0.04 0.06,-0.02 0.12,-0.07 0.15,-0.13 0.04,-0.06 0.06,-0.14 0.06,-0.24 0,-0.1 -0.03,-0.19 -0.08,-0.26 -0.05,-0.06 -0.12,-0.1 -0.21,-0.12 -0.04,-0.01 -0.18,-0.01 -0.4,-0.01l-0.44 0 0 0.8z"/>
  </g>
  <g id="_2325258548000">
   <path fill="url(#id0)" fill-rule="nonzero" d="M17.61 8.28c0.74,-0.87 1.32,-1.99 1.54,-3.27 0,-0.02 -0.03,-0.06 -0.05,-0.07 -0.02,-0.01 -0.04,-0.02 -0.05,0 -1.09,2.95 -2.86,4.42 -5.37,5.45 -0.1,-0.41 -0.19,-0.83 -0.26,-1.25 0.96,-0.26 1.9,-0.64 2.65,-1.2 0.83,-0.6 1.52,-1.38 2.02,-2.27 0.49,-0.86 0.83,-1.74 1.02,-2.63 0.05,-0.22 0.02,-0.3 -0.06,-0.36 0,-0.01 -0.02,-0.02 -0.03,-0.02 -0.03,-0.03 -0.05,0 -0.06,0.04 -0.05,0.25 -0.14,0.44 -0.2,0.66 -1,2.67 -2.58,4.28 -5.45,4.94 -0.04,-0.47 -0.06,-0.94 -0.04,-1.41 2.02,-0.43 3.72,-1.83 4.65,-3.66 0.42,-0.82 0.72,-1.7 0.95,-2.68 0.03,-0.15 -0.08,-0.23 -0.09,-0.24 -0.02,-0.01 -0.04,-0.02 -0.07,-0.02 -0.03,-0.02 -0.08,-0.03 -0.15,-0.02 -0.98,0.23 -1.86,0.53 -2.68,0.95 -1.82,0.93 -3.22,2.62 -3.64,4.62 -0.47,0.03 -0.95,0.01 -1.42,-0.03 0.67,-2.86 2.27,-4.43 4.93,-5.42 0.21,-0.07 0.41,-0.15 0.66,-0.2 0.04,-0.01 0.07,-0.04 0.05,-0.06 -0.01,-0.01 -0.02,-0.03 -0.03,-0.04 -0.06,-0.07 -0.13,-0.09 -0.36,-0.05 -0.89,0.2 -1.76,0.53 -2.63,1.02 -0.88,0.5 -1.66,1.19 -2.27,2.01 -0.54,0.75 -0.93,1.68 -1.19,2.63 -0.42,-0.07 -0.84,-0.17 -1.24,-0.27 1.02,-2.48 2.49,-4.26 5.44,-5.34 0.01,0 0.01,-0.02 0,-0.04 -0.02,-0.02 -0.06,-0.05 -0.07,-0.05 -1.3,0.21 -2.4,0.81 -3.28,1.54 -1.16,0.97 -2.09,2.19 -2.83,3.69 -0.37,-0.11 -0.74,-0.22 -1.09,-0.35 -1.09,-0.38 -3.9,-1.67 -4.99,-2.6 -0.34,-0.29 -0.5,-0.33 -0.69,-0.2 -0.04,0.02 -0.17,0.15 -0.27,0.27 -0.39,0.52 -0.8,1.4 -0.96,2 -0.02,0.06 0.09,0.12 0.19,0.08 0.5,-0.22 2.69,0.72 3.33,0.98 0.41,0.16 0.82,0.3 1.24,0.45 0.87,0.29 1.75,0.55 2.64,0.76 -0.05,0.15 -0.1,0.28 -0.15,0.43 -0.16,0.44 -0.28,0.88 -0.39,1.33 -2.1,-0.32 -3.88,-0.85 -5.04,-1.34 -0.81,-0.33 -1.32,-0.42 -1.68,-0.23 -0.06,0.03 -0.12,0.14 -0.1,0.29 0.09,0.49 0.25,1 0.49,1.47 0.2,0.39 0.31,0.27 0.49,0.22 0.27,-0.06 0.58,0.03 0.83,0.07 0.49,0.1 0.99,0.22 1.48,0.33 1.08,0.23 2.18,0.37 3.29,0.44 -0.1,0.59 -0.16,1.17 -0.19,1.73 -0.15,-0.01 -0.28,-0.02 -0.42,-0.02 -1.61,-0.09 -3.43,-0.54 -4.02,-0.7 -0.06,-0.02 -0.05,0.15 -0.01,0.2 0.26,0.29 0.77,0.82 0.89,0.95 0.3,0.33 0.64,0.56 1.06,0.7 0.53,0.17 1.09,0.2 1.63,0.22 0.26,0.01 0.54,0.02 0.83,0.02 0,0.29 0,0.58 0.01,0.85 0.02,0.54 0.05,1.1 0.22,1.62 0.14,0.43 0.37,0.77 0.7,1.07 0.13,0.12 0.67,0.63 0.96,0.89 0.04,0.04 0.21,0.04 0.19,-0.01 -0.15,-0.6 -0.6,-2.41 -0.7,-4.02 0,-0.15 -0.01,-0.3 -0.02,-0.45 0.55,-0.03 1.14,-0.09 1.73,-0.18 0.06,1.11 0.2,2.22 0.44,3.31 0.11,0.49 0.23,0.98 0.32,1.48 0.05,0.26 0.13,0.57 0.07,0.83 -0.04,0.18 -0.17,0.29 0.22,0.49 0.48,0.24 0.98,0.4 1.48,0.48 0.16,0.03 0.26,-0.03 0.28,-0.09 0.19,-0.36 0.11,-0.86 -0.23,-1.68 -0.48,-1.16 -1.03,-2.95 -1.34,-5.06 0.46,-0.11 0.91,-0.24 1.36,-0.39 0.14,-0.05 0.27,-0.1 0.39,-0.15 0.22,0.9 0.48,1.78 0.77,2.66 0.14,0.42 0.29,0.83 0.45,1.24 0.25,0.63 1.2,2.82 0.98,3.33 -0.04,0.1 0.02,0.2 0.08,0.19 0.59,-0.16 1.48,-0.58 2,-0.96 0.12,-0.1 0.24,-0.23 0.27,-0.27 0.13,-0.18 0.08,-0.34 -0.21,-0.69 -0.92,-1.08 -2.22,-3.89 -2.59,-4.99 -0.13,-0.36 -0.25,-0.73 -0.35,-1.1 1.52,-0.74 2.76,-1.69 3.74,-2.85zm-2.04 -6.29c0.77,-0.59 1.66,-1.02 2.58,-1.32 0.15,-0.05 0.3,-0.09 0.45,-0.14 -0.04,0.14 -0.09,0.28 -0.13,0.42 -0.31,0.92 -0.73,1.82 -1.32,2.58 -0.96,1.23 -2.29,1.9 -3.73,2.17 0.27,-1.43 0.93,-2.75 2.15,-3.71zm-3.51 5.06c-0.03,0.42 -0.03,0.85 -0.02,1.28 0,0.06 0.01,0.12 0.01,0.17 -0.5,0.06 -1.02,0.09 -1.54,0.11 0.01,-0.52 0.05,-1.04 0.1,-1.54 0.07,0 0.14,0 0.19,0 0.42,0.01 0.85,0 1.26,-0.02zm-3.8 -0.27c0.47,0.09 0.94,0.17 1.41,0.22 -0.09,0.56 -0.16,1.1 -0.19,1.6 -0.45,-0.01 -0.91,-0.04 -1.35,-0.09 -0.07,-0.01 -0.14,-0.01 -0.22,-0.02 0.09,-0.57 0.2,-1.14 0.35,-1.71zm-0.54 4.6c0,-0.55 0.03,-1.13 0.07,-1.71 0.55,0.02 1.1,0.01 1.64,0 0,0.55 -0.01,1.1 0,1.64 -0.58,0.05 -1.15,0.07 -1.71,0.07zm2.89 -0.19c-0.01,-0.06 -0.02,-0.12 -0.02,-0.19 -0.04,-0.45 -0.07,-0.91 -0.08,-1.37 0.49,-0.04 1.04,-0.1 1.6,-0.2 0.05,0.48 0.12,0.95 0.2,1.42 -0.55,0.15 -1.12,0.27 -1.7,0.34z"/>
   <g>
    <polygon fill="#13182B" fill-rule="nonzero" points="24.39,7.39 24.83,6.92 26.36,8.71 26.95,8.71 25.12,6.6 26.82,4.74 26.27,4.74 24.39,6.83 24.39,4.74 23.97,4.74 23.97,8.71 24.39,8.71 "/>
    <polygon fill="#13182B" fill-rule="nonzero" points="30.38,8.31 28.3,8.31 28.3,6.93 30.12,6.93 30.12,6.51 28.3,6.51 28.3,5.15 30.38,5.15 30.38,4.74 27.87,4.74 27.87,8.71 30.38,8.71 "/>
    <polygon fill="#13182B" fill-rule="nonzero" points="32.01,5.45 33.37,7.47 34.81,5.44 34.81,8.71 35.25,8.71 35.25,4.74 34.78,4.74 33.4,6.81 32.05,4.74 31.59,4.74 31.59,8.71 32.01,8.71 "/>
    <polygon fill="#13182B" fill-rule="nonzero" points="39.02,8.31 36.94,8.31 36.94,6.93 38.77,6.93 38.77,6.51 36.94,6.51 36.94,5.15 39.02,5.15 39.02,4.74 36.51,4.74 36.51,8.71 39.02,8.71 "/>
    <polygon fill="#13182B" fill-rule="nonzero" points="40.66,5.36 43.04,8.71 43.51,8.71 43.51,4.74 43.09,4.74 43.09,8.08 40.72,4.74 40.23,4.74 40.23,8.71 40.66,8.71 "/>
    <polygon fill="#13182B" fill-rule="nonzero" points="46.23,8.71 46.23,5.15 47.63,5.15 47.63,4.74 44.4,4.74 44.4,5.15 45.8,5.15 45.8,8.71 "/>
    <polygon fill="#13182B" fill-rule="nonzero" points="51.02,8.31 48.94,8.31 48.94,6.93 50.76,6.93 50.76,6.51 48.94,6.51 48.94,5.15 51.02,5.15 51.02,4.74 48.52,4.74 48.52,8.71 51.02,8.71 "/>
    <path fill="#13182B" fill-rule="nonzero" d="M52.65 7.11l1.02 0 1.04 1.6 0.5 0 -1.08 -1.64c0.13,-0.03 0.25,-0.07 0.36,-0.13 0.17,-0.1 0.3,-0.25 0.4,-0.43 0.09,-0.18 0.14,-0.38 0.14,-0.61 0,-0.38 -0.1,-0.66 -0.3,-0.86 -0.19,-0.2 -0.48,-0.29 -0.87,-0.29l-1.63 0 0 3.96 0.42 0 0 -1.6zm0 -1.96l1.15 0c0.31,0 0.51,0.07 0.63,0.21 0.11,0.15 0.17,0.34 0.17,0.57 0,0.26 -0.08,0.45 -0.23,0.58 -0.14,0.14 -0.39,0.2 -0.71,0.2l-1.01 0 0 -1.56z"/>
    <polygon fill="#13182B" fill-rule="nonzero" points="56.25,8.71 56.67,8.71 56.67,4.74 56.25,4.74 "/>
    <path fill="#13182B" fill-rule="nonzero" d="M58.5 7.47l1.71 0 0.48 1.24 0.46 0 -1.58 -3.97 -0.43 0 -1.58 3.97 0.46 0 0.48 -1.24zm0.85 -2.22l0.7 1.82 -1.39 0 0.69 -1.82z"/>
    <polygon fill="#13182B" fill-rule="nonzero" points="62.46,5.36 64.83,8.71 65.31,8.71 65.31,4.74 64.89,4.74 64.89,8.08 62.52,4.74 62.03,4.74 62.03,8.71 62.46,8.71 "/>
    <path fill="#13182B" fill-rule="nonzero" d="M26.39 9.99c-0.24,-0.21 -0.58,-0.31 -1.02,-0.31l-1.41 0 0 3.97 0.42 0 0 -1.52 0.98 0c0.44,0 0.79,-0.1 1.02,-0.31 0.24,-0.22 0.36,-0.51 0.36,-0.91 0.01,-0.4 -0.11,-0.71 -0.35,-0.92zm-0.11 1.2c-0.02,0.09 -0.07,0.18 -0.13,0.26 -0.07,0.09 -0.17,0.14 -0.3,0.2 -0.14,0.05 -0.31,0.06 -0.53,0.06l-0.93 0 0 -1.62 0.93 0c0.22,0 0.4,0.02 0.53,0.07 0.13,0.05 0.23,0.11 0.3,0.19 0.06,0.09 0.11,0.17 0.13,0.27 0.03,0.09 0.04,0.18 0.04,0.29 0,0.09 -0.01,0.18 -0.04,0.28z"/>
    <polygon fill="#13182B" fill-rule="nonzero" points="30.05,13.24 27.98,13.24 27.98,11.87 29.8,11.87 29.8,11.45 27.98,11.45 27.98,10.08 30.05,10.08 30.05,9.68 27.55,9.68 27.55,13.65 30.05,13.65 "/>
    <path fill="#13182B" fill-rule="nonzero" d="M33.2 11.87c0.17,-0.11 0.31,-0.25 0.4,-0.43 0.1,-0.18 0.15,-0.38 0.15,-0.61 0,-0.38 -0.1,-0.67 -0.3,-0.86 -0.2,-0.2 -0.49,-0.29 -0.88,-0.29l-1.62 0 0 3.97 0.42 0 0 -1.6 1.02 0 1.03 1.6 0.51 0 -1.09 -1.65c0.13,-0.03 0.25,-0.07 0.36,-0.13zm-1.83 -1.79l1.15 0c0.31,0 0.51,0.07 0.62,0.21 0.11,0.15 0.17,0.33 0.17,0.57 0,0.26 -0.07,0.45 -0.22,0.58 -0.14,0.14 -0.39,0.2 -0.71,0.2l-1.01 0 0 -1.56z"/>
    <path fill="#13182B" fill-rule="nonzero" d="M34.63 13.65l1.25 0c0.62,0 1.08,-0.17 1.39,-0.51 0.32,-0.33 0.47,-0.82 0.47,-1.49 0,-0.65 -0.15,-1.14 -0.47,-1.48 -0.31,-0.33 -0.77,-0.49 -1.39,-0.49l-1.25 0 0 3.97zm0.44 -3.57l0.78 0c0.51,0 0.88,0.13 1.11,0.38 0.23,0.26 0.34,0.66 0.34,1.2 0,0.55 -0.12,0.95 -0.34,1.2 -0.23,0.26 -0.6,0.39 -1.11,0.39l-0.78 0 0 -3.17z"/>
    <path fill="#13182B" fill-rule="nonzero" d="M38.62 13.65l0.47 -1.24 1.71 0 0.48 1.24 0.46 0 -1.57 -3.97 -0.43 0 -1.58 3.97 0.46 0zm1.33 -3.47l0.7 1.81 -1.39 0 0.69 -1.81z"/>
    <path fill="#13182B" fill-rule="nonzero" d="M43.9 12.02l0.96 0 0 1.13c-0.15,0.05 -0.3,0.09 -0.45,0.11 -0.15,0.03 -0.3,0.04 -0.46,0.04 -0.33,0 -0.6,-0.06 -0.82,-0.18 -0.21,-0.12 -0.38,-0.3 -0.48,-0.54 -0.1,-0.24 -0.15,-0.54 -0.15,-0.92 0,-0.37 0.05,-0.68 0.15,-0.92 0.1,-0.23 0.27,-0.41 0.48,-0.53 0.21,-0.12 0.49,-0.18 0.82,-0.18 0.22,0 0.42,0.03 0.63,0.09 0.2,0.06 0.4,0.14 0.57,0.21l0 -0.44c-0.19,-0.09 -0.4,-0.16 -0.6,-0.2 -0.21,-0.04 -0.43,-0.07 -0.64,-0.07 -0.4,0 -0.74,0.08 -1.01,0.23 -0.27,0.15 -0.48,0.37 -0.61,0.68 -0.14,0.3 -0.21,0.68 -0.21,1.13 0,0.45 0.07,0.83 0.21,1.14 0.13,0.3 0.34,0.52 0.61,0.68 0.27,0.15 0.61,0.23 1.01,0.23 0.25,0 0.49,-0.03 0.72,-0.08 0.23,-0.05 0.45,-0.13 0.67,-0.23l0 -1.79 -1.4 0 0 0.41z"/>
    <path fill="#13182B" fill-rule="nonzero" d="M46.8 12.4l1.71 0 0.48 1.24 0.46 0 -1.58 -3.97 -0.43 0 -1.59 3.98 0.46 0 0.49 -1.25zm0.85 -2.22l0.7 1.81 -1.4 0 0.7 -1.81z"/>
    <polygon fill="#13182B" fill-rule="nonzero" points="50.49,9.68 50.01,9.68 50.01,13.65 50.43,13.65 50.43,10.3 52.8,13.65 53.28,13.65 53.28,9.68 52.86,9.68 52.86,13.02 "/>
    <path fill="#13182B" fill-rule="nonzero" d="M55.92 12.02l0.96 0 0 1.13c-0.15,0.05 -0.3,0.09 -0.45,0.11 -0.15,0.03 -0.3,0.04 -0.46,0.04 -0.33,0 -0.6,-0.06 -0.82,-0.18 -0.21,-0.12 -0.38,-0.3 -0.48,-0.54 -0.1,-0.24 -0.15,-0.54 -0.15,-0.92 0,-0.37 0.05,-0.68 0.15,-0.92 0.1,-0.23 0.27,-0.41 0.48,-0.53 0.21,-0.12 0.49,-0.18 0.82,-0.18 0.22,0 0.42,0.03 0.63,0.09 0.2,0.06 0.4,0.14 0.58,0.21l0 -0.44c-0.2,-0.09 -0.4,-0.16 -0.61,-0.2 -0.21,-0.04 -0.42,-0.07 -0.64,-0.07 -0.4,0 -0.74,0.08 -1.01,0.23 -0.27,0.15 -0.48,0.37 -0.61,0.68 -0.14,0.3 -0.21,0.68 -0.21,1.13 0,0.45 0.07,0.83 0.21,1.14 0.13,0.3 0.34,0.52 0.61,0.68 0.27,0.15 0.61,0.23 1.01,0.23 0.25,0 0.49,-0.03 0.72,-0.08 0.23,-0.05 0.45,-0.13 0.67,-0.23l0 -1.79 -1.39 0 0 0.41 -0.01 0z"/>
    <path fill="#13182B" fill-rule="nonzero" d="M59.46 9.68l-1.59 3.97 0.46 0 0.48 -1.24 1.71 0 0.48 1.24 0.46 0 -1.58 -3.97 -0.42 0zm-0.49 2.31l0.7 -1.81 0.7 1.81 -1.4 0z"/>
    <polygon fill="#13182B" fill-rule="nonzero" points="62.45,10.3 64.83,13.65 65.31,13.65 65.31,9.68 64.88,9.68 64.88,13.02 62.51,9.68 62.03,9.68 62.03,13.65 62.45,13.65 "/>
    <path fill="#595A5C" fill-rule="nonzero" d="M25.51 16.4c0.09,-0.07 0.17,-0.16 0.22,-0.27 0.05,-0.1 0.07,-0.22 0.07,-0.35 0,-0.24 -0.06,-0.42 -0.2,-0.54 -0.14,-0.12 -0.32,-0.18 -0.58,-0.18l-1.07 0 0 2.41 0.4 0 0 -0.91 0.51 0 0.56 0.91 0.5 0 -0.65 -0.98c0.09,-0.02 0.17,-0.05 0.24,-0.09zm-1.15 -1l0.62 0c0.15,0 0.25,0.03 0.31,0.11 0.06,0.07 0.1,0.18 0.1,0.31 0,0.14 -0.04,0.24 -0.12,0.31 -0.08,0.07 -0.2,0.1 -0.36,0.1l-0.56 0 0 -0.83 0.01 0z"/>
    <polygon fill="#595A5C" fill-rule="nonzero" points="26.65,17.47 28.23,17.47 28.23,17.14 27.05,17.14 27.05,16.44 28.08,16.44 28.08,16.1 27.05,16.1 27.05,15.4 28.23,15.4 28.23,15.06 26.65,15.06 "/>
    <path fill="#595A5C" fill-rule="nonzero" d="M30.65 15.26c-0.15,-0.13 -0.37,-0.19 -0.64,-0.19l-0.95 0 0 2.41 0.4 0 0 -0.86 0.55 0c0.27,0 0.49,-0.07 0.64,-0.21 0.15,-0.13 0.23,-0.33 0.23,-0.58 -0.01,-0.26 -0.09,-0.45 -0.23,-0.57zm-0.21 0.74c-0.02,0.05 -0.04,0.09 -0.08,0.13 -0.03,0.04 -0.09,0.08 -0.15,0.1 -0.07,0.02 -0.16,0.03 -0.26,0.03l-0.5 0 0 -0.87 0.5 0c0.1,0 0.19,0.01 0.26,0.04 0.06,0.02 0.12,0.06 0.15,0.1 0.03,0.04 0.06,0.09 0.08,0.14 0.01,0.05 0.01,0.11 0.01,0.16 0,0.06 0,0.11 -0.01,0.17z"/>
    <path fill="#595A5C" fill-rule="nonzero" d="M33.24 16.52c0,0.23 -0.05,0.4 -0.16,0.51 -0.1,0.11 -0.24,0.16 -0.44,0.16 -0.2,0 -0.35,-0.05 -0.44,-0.16 -0.1,-0.11 -0.15,-0.29 -0.15,-0.51l0 -1.45 -0.41 0 0 1.46c0,0.33 0.09,0.58 0.27,0.75 0.17,0.17 0.42,0.25 0.75,0.25 0.19,0 0.37,-0.04 0.52,-0.11 0.14,-0.08 0.25,-0.19 0.33,-0.33 0.08,-0.16 0.12,-0.34 0.12,-0.56l0 -1.46 -0.38 0 0 1.45 -0.01 0z"/>
    <path fill="#595A5C" fill-rule="nonzero" d="M36.05 16.25c-0.05,-0.02 -0.1,-0.05 -0.15,-0.07 0.03,-0.01 0.06,-0.03 0.09,-0.06 0.06,-0.04 0.1,-0.09 0.14,-0.15 0.04,-0.06 0.06,-0.14 0.06,-0.26 0,-0.13 -0.02,-0.24 -0.08,-0.34 -0.06,-0.1 -0.15,-0.17 -0.28,-0.23 -0.12,-0.06 -0.28,-0.08 -0.47,-0.08l-0.9 0 0 2.41 0.98 0c0.17,0 0.32,-0.03 0.46,-0.07 0.14,-0.05 0.24,-0.13 0.32,-0.23 0.07,-0.1 0.11,-0.24 0.11,-0.4 0,-0.13 -0.03,-0.24 -0.09,-0.32 -0.04,-0.09 -0.11,-0.16 -0.19,-0.2zm-1.17 -0.85l0.51 0c0.13,0 0.23,0.03 0.3,0.08 0.07,0.05 0.11,0.14 0.11,0.27 0,0.08 -0.02,0.15 -0.06,0.2 -0.04,0.05 -0.09,0.08 -0.15,0.1 -0.05,0.01 -0.11,0.02 -0.17,0.02l-0.54 0 0 -0.67zm0.99 1.59c-0.05,0.06 -0.11,0.1 -0.18,0.12 -0.08,0.02 -0.15,0.04 -0.24,0.04l-0.57 0 0 -0.75 0.56 0c0.06,0 0.12,0 0.18,0 0.06,0.01 0.11,0.03 0.16,0.06 0.05,0.02 0.09,0.06 0.11,0.11 0.03,0.05 0.05,0.11 0.05,0.18 -0.01,0.11 -0.03,0.18 -0.07,0.24z"/>
    <polygon fill="#595A5C" fill-rule="nonzero" points="37.5,15.06 37.1,15.06 37.1,17.47 38.65,17.47 38.65,17.13 37.5,17.13 "/>
    <polygon fill="#595A5C" fill-rule="nonzero" points="39.32,17.47 39.72,17.47 39.72,15.06 39.32,15.06 "/>
    <polygon fill="#595A5C" fill-rule="nonzero" points="42.46,15.06 41.95,15.06 40.99,16.23 40.99,15.06 40.59,15.06 40.59,17.47 40.99,17.47 40.99,16.69 41.21,16.45 42.02,17.47 42.54,17.47 41.49,16.14 "/>
    <polygon fill="#595A5C" fill-rule="nonzero" points="44.54,17.47 44.94,17.47 44.94,15.06 44.54,15.06 "/>
    <polygon fill="#595A5C" fill-rule="nonzero" points="47.46,16.83 46.18,15.06 45.8,15.06 45.8,17.47 46.18,17.47 46.18,15.68 47.49,17.47 47.84,17.47 47.84,15.06 47.46,15.06 "/>
    <path fill="#595A5C" fill-rule="nonzero" d="M49.55 15.06l-0.85 0 0 2.41 0.85 0c0.39,0 0.68,-0.1 0.87,-0.31 0.18,-0.2 0.29,-0.5 0.29,-0.9 0,-0.4 -0.1,-0.7 -0.29,-0.9 -0.19,-0.2 -0.48,-0.3 -0.87,-0.3zm0.56 1.86c-0.13,0.14 -0.32,0.21 -0.6,0.21l-0.41 0 0 -1.75 0.41 0c0.28,0 0.47,0.07 0.6,0.22 0.13,0.13 0.19,0.35 0.19,0.66 0,0.31 -0.06,0.53 -0.19,0.66z"/>
    <path fill="#595A5C" fill-rule="nonzero" d="M53.11 15.16c-0.17,-0.09 -0.37,-0.13 -0.62,-0.13 -0.36,0 -0.64,0.1 -0.83,0.31 -0.19,0.21 -0.29,0.52 -0.29,0.93 0,0.28 0.04,0.51 0.13,0.69 0.08,0.19 0.21,0.32 0.38,0.41 0.17,0.09 0.37,0.13 0.61,0.13 0.37,0 0.65,-0.1 0.84,-0.31 0.18,-0.22 0.29,-0.52 0.29,-0.93 0,-0.28 -0.05,-0.51 -0.13,-0.7 -0.09,-0.17 -0.21,-0.31 -0.38,-0.4zm0.02 1.63c-0.05,0.13 -0.13,0.23 -0.24,0.29 -0.1,0.06 -0.24,0.09 -0.4,0.09 -0.16,0 -0.29,-0.03 -0.4,-0.09 -0.1,-0.06 -0.18,-0.16 -0.24,-0.29 -0.05,-0.14 -0.07,-0.31 -0.07,-0.52 0,-0.21 0.02,-0.38 0.07,-0.51 0.06,-0.13 0.13,-0.23 0.24,-0.29 0.11,-0.06 0.24,-0.1 0.4,-0.1 0.16,0 0.3,0.04 0.4,0.1 0.11,0.06 0.18,0.16 0.24,0.29 0.05,0.13 0.08,0.3 0.08,0.51 0,0.21 -0.03,0.38 -0.08,0.52z"/>
    <polygon fill="#595A5C" fill-rule="nonzero" points="56.04,16.83 54.77,15.06 54.38,15.06 54.38,17.47 54.77,17.47 54.77,15.68 56.07,17.47 56.43,17.47 56.43,15.06 56.04,15.06 "/>
    <polygon fill="#595A5C" fill-rule="nonzero" points="57.29,17.47 58.86,17.47 58.86,17.14 57.69,17.14 57.69,16.44 58.71,16.44 58.71,16.1 57.69,16.1 57.69,15.4 58.86,15.4 58.86,15.06 57.29,15.06 "/>
    <path fill="#595A5C" fill-rule="nonzero" d="M61.04 16.31c-0.07,-0.05 -0.14,-0.09 -0.22,-0.13 -0.09,-0.03 -0.17,-0.06 -0.27,-0.09 -0.1,-0.03 -0.18,-0.06 -0.26,-0.09 -0.08,-0.04 -0.14,-0.08 -0.18,-0.12 -0.04,-0.05 -0.06,-0.12 -0.06,-0.21 0,-0.06 0.02,-0.12 0.05,-0.17 0.04,-0.05 0.09,-0.08 0.15,-0.11 0.07,-0.02 0.14,-0.04 0.25,-0.03 0.08,0 0.17,0.01 0.23,0.03 0.07,0.03 0.14,0.05 0.21,0.09 0.06,0.03 0.12,0.06 0.18,0.11l0 -0.39c-0.08,-0.04 -0.15,-0.07 -0.21,-0.1 -0.07,-0.02 -0.13,-0.04 -0.2,-0.06 -0.07,-0.01 -0.16,-0.01 -0.25,-0.01 -0.14,0 -0.27,0.01 -0.37,0.06 -0.11,0.04 -0.19,0.09 -0.26,0.16 -0.06,0.06 -0.11,0.13 -0.14,0.22 -0.04,0.08 -0.05,0.16 -0.05,0.24 0,0.11 0.01,0.2 0.05,0.29 0.03,0.07 0.08,0.13 0.14,0.18 0.06,0.05 0.13,0.1 0.21,0.12 0.07,0.04 0.15,0.06 0.23,0.1 0.1,0.03 0.19,0.06 0.28,0.11 0.09,0.03 0.17,0.07 0.22,0.12 0.05,0.06 0.08,0.12 0.08,0.21 0,0.11 -0.03,0.19 -0.11,0.25 -0.07,0.06 -0.19,0.1 -0.33,0.1 -0.15,0 -0.3,-0.03 -0.43,-0.07 -0.14,-0.05 -0.25,-0.11 -0.34,-0.19l0 0.4c0.07,0.05 0.15,0.08 0.23,0.1 0.07,0.03 0.16,0.06 0.24,0.06 0.1,0.02 0.2,0.02 0.32,0.02 0.19,0 0.35,-0.03 0.47,-0.1 0.12,-0.07 0.22,-0.16 0.27,-0.26 0.05,-0.11 0.08,-0.23 0.08,-0.35 0,-0.11 -0.01,-0.21 -0.06,-0.29 -0.03,-0.08 -0.09,-0.15 -0.15,-0.2z"/>
    <polygon fill="#595A5C" fill-rule="nonzero" points="62.02,17.47 62.42,17.47 62.42,15.06 62.02,15.06 "/>
    <path fill="#595A5C" fill-rule="nonzero" d="M64.91 17.47l0.42 0 -0.91 -2.41 -0.43 0 -0.93 2.41 0.4 0 0.24 -0.66 0.98 0 0.23 0.66zm-1.1 -0.98l0.37 -1.03 0.38 1.03 -0.75 0z"/>
   </g>
  </g>
 </g>
</svg>
